PathFileType	4	(X/Y/Z)	D:\TRACE\v60_Jaco2_6-2-23\BothDRS_Motion1_4-v60.trc
DataRate	CameraRate	NumFrames	NumMarkers	Units	OrigDataRate	OrigDataStartFrame	OrigNumFrames
100.00	100.00	      31	9	mm	100.00	4362	      6979
Frame#	Time	front left toe			Front right toe			aft left toe			aft right toe			Arm			FL body			FR body			AL Body			AR Body			
		X1	Y1	Z1	X2	Y2	Z2	X3	Y3	Z3	X4	Y4	Z4	X5	Y5	Z5	X6	Y6	Z6	X7	Y7	Z7	X8	Y8	Z8	X9	Y9	Z9	

4362	43.610	-170.56667	71.28409	-280.52753	238.46007	8.25303	-327.99222	-18.59010	18.04732	356.55341	286.04669	67.18949	288.48846	83.23199	1077.85657	-646.81354	-53.15425	564.99744	-424.84796	104.63423	563.78802	-450.60773	99.96887	567.33496	508.83112	255.45290	560.21423	483.54120	
4363	43.620	-171.44911	63.19565	-282.83490	238.98259	7.99467	-328.01816	-17.77349	17.97036	356.26068	282.48544	58.91549	287.87424	85.01921	1077.23669	-648.23065	-52.99496	564.84613	-426.26706	104.77457	563.44824	-451.51389	97.71308	567.72614	507.82281	252.71732	559.98279	483.54413	
4364	43.630	-171.89314	55.42898	-285.53854	240.42032	7.79488	-327.89197	-17.15535	17.80987	355.94504	279.04977	50.82415	286.85101	87.29397	1076.75867	-649.43378	-52.22091	564.94611	-427.72067	105.78394	562.88635	-452.97812	95.32542	567.84583	506.90714	250.34807	559.98688	483.18256	
4365	43.640	-171.97302	48.07206	-288.15680	240.77747	7.60527	-328.02582	-16.71204	17.85001	355.78043	276.42746	43.78359	286.58331	89.77821	1076.54443	-650.87726	-51.93551	565.16107	-429.41617	106.74017	563.16260	-454.54504	92.61573	568.08649	505.68109	247.31564	559.80743	482.39209	
4366	43.650	-170.79803	41.24105	-291.11868	241.34851	7.43828	-328.16641	-16.27386	17.79521	355.57050	273.84906	36.79102	285.80103	92.28725	1076.58044	-652.08130	-51.12135	565.12372	-430.95038	107.63737	562.85254	-455.44968	89.78387	568.51300	504.47333	245.37021	560.15430	482.62146	
4367	43.660	-170.57770	34.91540	-293.95898	242.56979	7.29751	-328.06918	-15.66537	17.84245	355.33508	271.30453	30.66373	285.21130	95.62895	1076.53284	-653.39014	-50.84530	565.21948	-432.81320	108.05865	562.79095	-456.70523	87.03481	568.53033	503.34515	242.09538	560.11969	481.44037	
4368	43.670	-170.43080	28.16643	-296.59970	243.21159	7.05105	-327.89368	-15.01686	17.85547	355.07245	269.17355	24.63219	284.93774	98.57504	1076.35266	-654.68488	-49.88090	564.99078	-434.46295	108.98077	562.47845	-457.73575	84.14177	568.80249	501.94626	239.29530	560.00739	480.78479	
4369	43.680	-170.90582	21.53358	-299.20740	244.29480	6.87406	-327.95911	-14.48632	17.91121	354.72473	268.61624	22.28629	282.19293	101.17841	1075.97034	-655.94135	-49.35316	564.95288	-436.17053	109.08450	561.81183	-458.33142	80.74174	569.27222	500.73151	236.07390	560.11377	480.20767	
4370	43.690	-170.81685	14.51359	-302.01236	245.54185	6.73482	-327.82898	-14.13717	18.01973	354.30283	270.40671	21.42846	281.46558	103.56859	1075.35107	-657.57782	-48.06238	564.42334	-438.14404	110.23775	561.33521	-459.41824	77.38811	569.77783	499.58130	233.28473	560.84479	479.63791	
4371	43.700	-170.49034	12.56304	-304.08255	246.31007	5.97906	-327.96747	-13.23956	18.16087	354.08875	271.60403	21.82933	282.66269	105.98686	1074.66663	-659.16138	-46.95972	563.65320	-439.70926	111.60588	560.93604	-460.96747	74.04940	571.57220	498.30878	229.57991	562.77936	479.08344	
4372	43.710	-170.17123	9.91427	-303.12424	247.26186	6.02103	-327.56180	-12.66510	18.41153	353.76123	272.31091	23.56920	282.37833	107.92609	1073.75378	-661.43628	-46.74377	564.11725	-441.34894	112.73176	560.92041	-461.87387	70.83362	573.37506	497.19397	226.27480	564.18213	478.53775	
4373	43.720	-169.77512	10.35203	-304.02191	247.76170	8.01719	-327.89343	-12.52726	19.57578	353.20752	272.10410	23.42939	283.43570	109.08828	1072.76038	-664.50769	-45.43901	565.23047	-442.47156	113.34663	561.29303	-462.29282	67.71736	574.72296	496.20532	223.60582	565.14264	478.40710	
4374	43.730	-169.30026	9.01754	-304.32193	244.78804	11.04796	-325.95438	-12.03265	23.37098	352.58014	272.24326	22.72968	283.58109	110.53912	1071.90173	-666.51917	-45.39492	566.06384	-444.12543	113.60732	562.05658	-462.45505	65.40174	575.14349	495.70587	220.53114	565.69360	477.84421	
4375	43.740	-168.25717	9.19975	-304.70499	241.03696	14.44086	-322.50076	-9.60955	27.24012	354.14233	273.27057	23.45217	282.37964	112.16245	1071.52515	-667.46722	-44.21558	566.49774	-445.49710	114.43983	562.55762	-463.75092	62.66043	576.03204	494.41559	218.12244	566.55536	477.49991	
4376	43.750	-167.57829	8.65524	-305.15213	239.36066	22.79326	-320.75491	-8.08703	37.95862	352.43011	274.13104	23.59900	282.71497	113.71561	1072.55225	-667.57318	-43.35019	566.63660	-446.77036	114.83603	562.55859	-465.30475	60.66013	577.23682	493.20734	216.29053	567.36206	476.63037	
4377	43.760	-167.13934	8.57761	-305.11023	238.11649	31.00385	-320.31357	-7.19990	46.96789	351.64630	274.69345	23.72059	282.72266	116.14602	1074.11157	-667.74255	-42.98637	566.31342	-448.22070	116.24520	561.95691	-465.92444	58.98737	577.80524	492.28391	214.65817	568.12054	476.30615	
4378	43.770	-166.24113	8.12856	-305.26846	238.86040	43.00341	-322.23099	-9.13761	59.35295	349.48181	275.41476	23.76022	282.64920	118.81770	1075.04211	-668.55383	-42.78186	566.21649	-449.27783	116.59470	561.74146	-466.62054	57.75991	578.11523	491.59528	213.27354	568.20569	475.42636	
4379	43.780	-164.73050	7.67686	-305.10452	240.52794	55.55251	-324.32596	-14.29236	70.36562	346.63214	276.87970	23.93770	282.76910	120.45494	1074.69922	-669.42749	-42.49747	565.90771	-449.87875	116.71232	561.84564	-467.53265	56.98296	577.89484	490.86890	212.31126	568.07123	475.01498	
4380	43.790	-164.27261	7.46170	-305.09036	242.42133	68.59747	-326.97046	-20.95502	81.97439	343.36108	277.57004	24.02935	282.81186	121.75533	1073.43262	-669.97046	-41.97298	565.87628	-450.43323	117.23763	561.81592	-467.96335	56.53446	577.16180	490.41864	211.87228	567.45477	474.67981	
4381	43.800	-163.59579	7.19056	-305.28873	244.73427	81.68564	-329.74393	-27.35839	93.72855	339.25565	278.69788	23.82612	282.81717	121.80009	1072.40356	-670.58557	-41.20755	565.85663	-451.18155	117.73153	561.68451	-468.34933	55.79808	576.93939	489.51602	211.34758	566.89807	474.34286	
4382	43.810	-162.76088	6.86903	-305.45465	246.64462	93.62318	-331.95483	-34.04197	105.10197	334.62820	279.98926	23.88806	282.57959	121.57027	1072.11646	-671.03479	-40.69965	565.50775	-451.97235	118.72344	561.28064	-468.67130	55.15382	576.50470	489.05969	210.96054	566.36572	473.81769	
4383	43.820	-161.95090	6.56428	-305.53546	247.47940	104.74171	-333.92725	-39.39642	116.73897	330.00897	280.80890	23.83847	282.52298	121.09275	1072.32654	-671.75580	-40.06883	565.27228	-452.65408	119.49091	560.90863	-468.68845	54.76162	576.30206	488.75119	210.29926	566.42383	473.59283	
4384	43.830	-161.33272	6.46780	-305.74066	247.45561	115.33556	-335.74768	-43.34031	127.30495	326.36392	281.99124	23.96271	282.17767	120.91807	1072.44238	-672.06097	-38.87851	564.89746	-453.19763	120.74038	560.48260	-469.17252	54.53376	575.93921	488.43121	209.59634	566.15399	473.19806	
4385	43.840	-160.39911	6.36682	-306.00369	248.24547	125.12962	-336.98495	-48.71212	138.55141	322.68805	282.59271	24.05998	282.15857	121.65147	1072.05762	-672.05713	-37.83907	564.54608	-453.85013	122.49450	560.30554	-469.56647	54.02106	576.10895	487.73889	209.24374	566.10468	473.26978	
4386	43.850	-159.48299	6.02810	-306.09140	249.30350	132.34520	-337.63004	-51.59437	145.51872	320.43884	283.71710	24.29545	282.02179	122.95177	1071.71851	-672.32947	-36.71369	564.14301	-454.34604	122.85537	559.97821	-469.44302	53.66451	576.08398	487.45551	208.96643	566.23126	473.05209	
4387	43.860	-158.50270	5.76265	-306.10126	251.07445	137.12607	-337.87863	-55.15689	149.29234	318.45065	284.84998	24.56009	282.19241	124.87286	1071.24854	-672.69928	-35.76513	563.76923	-454.64673	124.14050	559.78705	-469.38000	53.24432	576.15247	487.40063	208.70853	566.45801	473.15543	
4388	43.870	-157.50989	5.70227	-306.17401	253.78284	139.71143	-337.61142	-60.47287	152.90750	316.34882	285.36823	24.44464	282.15466	127.00089	1070.66211	-673.13123	-33.91615	563.23792	-454.62015	125.89648	559.63092	-469.63031	53.04622	576.28070	487.39078	208.49347	566.72083	473.28775	
4389	43.880	-156.95892	5.85154	-306.27945	256.05835	139.24759	-336.95187	-64.50316	152.75665	315.41943	286.52194	24.62916	282.21582	128.34824	1070.31824	-673.14276	-32.89366	563.31104	-454.82382	127.14134	559.79883	-469.71671	52.76886	576.59845	487.37869	208.29745	566.98932	473.48819	
4390	43.890	-155.54495	5.70390	-306.49039	258.06140	136.42935	-336.05557	-69.47801	151.53941	314.51187	287.55292	24.81984	282.26846	130.10347	1070.06519	-673.27509	-30.93017	563.12427	-454.74026	127.69176	559.34955	-468.80746	52.59752	576.88153	487.38126	208.07048	567.01105	473.29807	
4391	43.900	-154.71384	5.62310	-306.70786	259.56241	132.35361	-335.09192	-73.72051	148.34354	313.61777	288.43185	24.95152	282.24774	131.56602	1070.27527	-672.88361	-30.13052	563.55621	-455.18066	130.43974	559.46716	-469.42542	52.61879	577.15186	487.37622	207.88831	567.10663	473.48688	
4392	43.910	-153.65784	5.56464	-306.78821	260.47702	127.10893	-333.98810	-78.28403	144.18146	312.40939	289.28964	25.19469	282.45285	133.58682	1070.47351	-672.95435	-27.71865	563.00568	-455.19904	131.47118	559.12341	-468.65048	52.38562	577.30695	487.41251	207.65463	567.19739	473.64911	
